HIERARCHY
ROOT Hips
{
  OFFSET -35.4901 99.2528 17.4586
  CHANNELS 6 Xposition Yposition Zposition Zrotation Xrotation Yrotation
  JOINT LeftUpLeg
  {
    OFFSET 8.64259 1.95398 -2.38835
    CHANNELS 3 Zrotation Xrotation Yrotation
    JOINT LeftLeg
    {
      OFFSET 43.7702 0 0
      CHANNELS 3 Zrotation Xrotation Yrotation
      JOINT LeftFoot
      {
        OFFSET 40.6238 0 0
        CHANNELS 3 Zrotation Xrotation Yrotation
        JOINT LeftToeBase
        {
          OFFSET 12.7242 0 0
          CHANNELS 3 Zrotation Xrotation Yrotation
          End Site
          {
            OFFSET 0 0 0
          }
        }
      }
    }
  }
  JOINT RightUpLeg
  {
    OFFSET -8.2249 1.95398 -2.59336
    CHANNELS 3 Zrotation Xrotation Yrotation
    JOINT RightLeg
    {
      OFFSET 43.5653 0 0
      CHANNELS 3 Zrotation Xrotation Yrotation
      JOINT RightFoot
      {
        OFFSET 40.6238 0 0
        CHANNELS 3 Zrotation Xrotation Yrotation
        JOINT RightToeBase
        {
          OFFSET 12.7242 0 0
          CHANNELS 3 Zrotation Xrotation Yrotation
          End Site
          {
            OFFSET 0 0 0
          }
        }
      }
    }
  }
  JOINT Spine
  {
    OFFSET 0.165834 0.87714 6.61349
    CHANNELS 3 Zrotation Xrotation Yrotation
    JOINT Spine1
    {
      OFFSET 7.38963 1.71661e-005 0
      CHANNELS 3 Zrotation Xrotation Yrotation
      JOINT Spine2
      {
        OFFSET 11.9445 1.14441e-005 0
        CHANNELS 3 Zrotation Xrotation Yrotation
        JOINT Spine3
        {
          OFFSET 14.7254 4.19617e-005 0
          CHANNELS 3 Zrotation Xrotation Yrotation
          JOINT Spine4
          {
            OFFSET 10.9679 0 0
            CHANNELS 3 Zrotation Xrotation Yrotation
            JOINT RightShoulder
            {
              OFFSET 2.46616 -1.6653 3.69651
              CHANNELS 3 Zrotation Xrotation Yrotation
              JOINT RightArm
              {
                OFFSET 13.0012 0 0
                CHANNELS 3 Zrotation Xrotation Yrotation
                JOINT RightForeArm
                {
                  OFFSET 28.7848 1.52588e-005 0
                  CHANNELS 3 Zrotation Xrotation Yrotation
                  JOINT RightHand
                  {
                    OFFSET 26.5688 1.52588e-005 0
                    CHANNELS 3 Zrotation Xrotation Yrotation
                    End Site
                    {
                      OFFSET 0 0 0
                    }
                  }
                }
              }
            }
            JOINT LeftShoulder
            {
              OFFSET 2.38034 -1.29275 -3.7523
              CHANNELS 3 Zrotation Xrotation Yrotation
              JOINT LeftArm
              {
                OFFSET 16.3182 6.10351e-005 0
                CHANNELS 3 Zrotation Xrotation Yrotation
                JOINT LeftForeArm
                {
                  OFFSET 27.0901 0 0
                  CHANNELS 3 Zrotation Xrotation Yrotation
                  JOINT LeftHand
                  {
                    OFFSET 24.5451 1.52588e-005 0
                    CHANNELS 3 Zrotation Xrotation Yrotation
                    End Site
                    {
                      OFFSET 0 0 0
                    }
                  }
                }
              }
            }
            JOINT Neck
            {
              OFFSET 5.0226 -0.0266342 0
              CHANNELS 3 Zrotation Xrotation Yrotation
              JOINT Head
              {
                OFFSET 6.69364 2.86102e-005 0
                CHANNELS 3 Zrotation Xrotation Yrotation
                End Site
                {
                  OFFSET 0 0 0
                }
              }
            }
          }
        }
      }
    }
  }
}
MOTION
Frames:	15
Frame Time:	0.0416667
172.34 101.719 -180.63 97.4258 -43.4838 96.7839 -174.892 1.54492 93.4746 -18.5029 14.8314 -0.593858 72.946 5.8652 -1.08359 16.9015 -4.11973 6.52173 171.108 -2.4194 89.6562 -9.90083 0.553453 0.0549693 68.2964 -4.92422 1.13165 21.1978 -0.44591 1.94795 0.348998 7.6105 -89.3355 11.6461 1.00577 1.21969 -0.0250179 1.05849 1.17424 -22.5569 0.592722 1.46553 -2.54426 0.592753 1.46554 89.5834 -30.7421 -107.294 44.947 -12.2598 -1.12676 3.60633 -27.807 -15.8098 -23.2174 0.229732 -9.99074 -83.1865 -46.0428 88.5725 -26.9823 15.4408 -11.3994 2.63661 5.78107 -13.1342 -0.988194 -0.121252 -6.91365 1.6157 -10.6993 -11.3635 -2.95371 -8.76879 -6.73109 
171.253 101.21 -180.293 95.9996 -43.8289 97.7561 -173.083 6.07571 96.7046 -23.5985 16.7759 -1.5463 74.6742 6.45894 -1.63497 15.6944 -3.10462 5.13391 170.874 3.8031 91.7507 -19.5223 -1.21654 1.603 69.9215 -5.65016 0.481732 22.1687 -0.652323 2.34137 0.385786 7.68271 -89.3025 11.5008 1.09352 1.27774 -0.170303 1.14869 1.22838 -22.702 0.659017 1.54727 -2.68939 0.659001 1.54726 89.443 -30.1545 -107.797 44.9397 -11.7445 -1.3144 2.95083 -26.8983 -16.2773 -25.3477 0.442401 -10.5094 -83.1913 -46.2701 88.589 -25.4999 14.5809 -10.163 2.63794 5.60986 -12.5175 -1.33463 -0.114806 -6.941 6.30284 -10.9137 -13.8697 -3.72555 -7.92952 -7.33076 
170.207 101.296 -179.914 94.6717 -43.2168 99.2249 -171.792 9.11501 100.009 -25.5479 19.5729 -1.53818 74.6397 6.66146 -1.5276 17.7886 -3.46567 5.64838 167.172 8.00212 90.3419 -20.7207 -2.21009 4.34582 64.2732 -2.8251 -0.310757 27.2197 -1.70976 4.69354 0.293054 7.80069 -89.3493 11.266 0.886168 1.20714 -0.405168 0.938418 1.16697 -22.9367 0.482439 1.41762 -2.92406 0.482434 1.41762 88.5097 -31.0921 -109.245 44.1173 -10.0594 -0.636472 1.80772 -26.061 -17.5665 -24.4474 0.403022 -10.3858 -83.6909 -45.4129 87.6988 -24.0852 14.5296 -9.58285 1.54989 3.80515 -9.99026 -0.0723985 -0.146673 -7.31903 10.0287 -11.7542 -16.0115 -4.39598 -7.7272 -7.72278 
169.495 101.625 -179.475 93.2393 -41.1649 100.212 -171.085 11.3964 102.131 -26.2792 21.9838 -0.537679 74.3018 6.7501 -2.32708 17.2484 -3.72499 5.99517 165.651 10.4619 84.6076 -18.9224 1.9095 3.38742 60.7386 -1.20359 0.130161 28.0457 -1.64835 4.46757 0.365807 7.80534 -89.5352 11.259 0.94428 0.832452 -0.41188 0.980009 0.790072 -22.9464 0.650451 1.07774 -2.93372 0.650453 1.07774 89.3241 -30.6395 -107.84 44.8216 -10.6973 1.03132 1.84089 -26.1301 -18.0128 -23.5145 0.323616 -10.1713 -83.4114 -44.0956 87.9949 -23.8143 14.531 -8.87235 1.47802 2.2705 -11.135 0.0799979 -0.155491 -7.43058 9.88872 -13.3867 -17.9985 -4.28801 -8.94548 -6.44216 
168.712 101.419 -178.423 92.6641 -39.0129 102.167 -169.777 14.8956 105.168 -30.0814 26.0512 0.474678 75.31 7.38242 -2.94257 17.0949 -4.36737 6.86544 166.058 11.3683 77.7699 -19.8433 -5.07801 -1.08295 63.4737 -2.06256 -0.875609 23.8443 -0.944547 2.89997 0.534804 7.75974 -89.8882 11.3543 1.11641 0.110821 -0.316175 1.12018 0.0615612 -22.8547 1.03148 0.441263 -2.84206 1.03147 0.441253 90.0712 -29.6611 -106.747 44.6802 -7.06622 3.50202 1.60578 -23.5755 -18.541 -23.2362 1.34026 -15.5553 -82.9602 -43.294 88.6392 -22.0329 14.5053 -8.26158 1.27668 0.850354 -12.2611 0.208997 -0.163849 -7.62345 5.45141 -13.9107 -19.5788 -2.48506 -10.0137 -6.81434 
167.609 100.523 -176.396 92.4786 -37.19 104.436 -168.764 18.8115 108.989 -35.4971 30.2194 2.08634 77.4092 8.34303 -2.96876 18.6984 -3.84627 6.20599 165.326 10.4461 72.5785 -20.9267 -13.1402 -3.64739 63.0502 -1.56477 -0.0453252 24.5685 -0.930153 2.81786 0.573327 7.76306 -90.2675 11.3495 1.01622 -0.634236 -0.321236 0.987328 -0.678359 -22.8591 1.15983 -0.299469 -2.84647 1.15984 -0.299467 90.3917 -28.7752 -106.445 43.0879 -5.57195 5.67552 0.965411 -24.3729 -18.6124 -21.9905 -0.0035009 -8.2219 -82.3117 -42.3431 89.6099 -20.6436 11.8117 -5.72655 2.5001 1.80374 -13.3093 -0.231387 -0.150466 -7.6198 3.86919 -14.5473 -22.2071 -3.18291 -10.4422 -6.54966 
165.074 98.6075 -174.081 90.8427 -36.6818 105.485 -169.837 25.53 112.673 -43.7141 31.6985 4.68263 80.0474 9.42677 -3.74586 20.2114 -3.41118 5.61727 165.214 11.9828 70.5273 -23.1763 -19.0224 -4.35055 62.9525 -1.46632 0.218342 24.8449 -0.970303 2.89619 0.589629 7.68375 -90.5992 11.5126 0.892864 -1.28518 -0.158693 0.835433 -1.32323 -22.6934 1.23781 -0.95744 -2.68073 1.23783 -0.957451 91.6776 -27.3314 -104.343 41.6035 -6.00105 6.68645 0.91685 -23.9888 -19.9691 -23.1233 0.510275 -10.9485 -82.3253 -40.003 89.3471 -20.1096 10.2208 -2.96356 3.13229 1.93246 -13.7009 -0.646747 -0.134592 -7.46489 4.76674 -15.7763 -25.1765 -4.13049 -10.9065 -5.72689 
161.432 95.998 -170.937 89.3204 -35.71 106.447 -172.329 32.4612 117.53 -51.8081 33.1993 7.82662 82.7575 10.425 -4.68899 21.0252 -2.73004 4.62502 165.643 12.0518 71.0984 -24.0348 -23.2297 -4.52549 62.2898 -1.28524 1.59582 24.0536 -0.763872 2.4593 0.434872 7.56274 -90.9394 11.7484 0.423769 -1.91678 0.0761183 0.338995 -1.93359 -22.4502 0.980158 -1.70093 -2.43754 0.980164 -1.70093 91.9736 -28.1803 -103.438 39.328 -3.2753 9.06741 -0.80466 -23.709 -22.0858 -22.8427 0.598664 -11.4974 -82.9395 -37.8126 88.033 -19.5675 10.1853 -1.53372 2.75713 2.0608 -11.9763 -0.03362 -0.132893 -6.42756 4.17587 -17.0422 -28.8601 -4.82809 -11.6385 -4.93174 
157.096 92.8584 -167.321 90.4217 -36.4867 106.045 -174.195 35.4277 120.919 -57.4749 32.663 9.805 84.7627 11.0221 -5.84743 25.0798 -4.56063 7.52559 167.082 13.2264 70.8247 -27.9881 -27.9604 -6.4146 58.5157 0.103974 2.97205 26.2038 -0.435889 1.45782 0.272943 7.65047 -90.9528 11.5699 0.0969941 -1.90849 -0.102485 0.0129306 -1.91093 -22.6275 0.665995 -1.79118 -2.6148 0.666 -1.79119 91.932 -29.6684 -103.019 38.2107 -0.914663 10.3908 -1.99371 -22.2502 -23.8875 -23.3404 0.493039 -10.5274 -83.3258 -37.2282 87.2778 -17.9998 9.80093 -3.24495 2.36225 2.19596 -9.23807 0.440339 -0.136171 -6.22852 0.946622 -16.4185 -31.2433 -2.94127 -11.6 -4.72064 
152.043 89.53 -162.682 93.5256 -38.8078 104.913 -174.586 33.8444 123.13 -58.8035 30.7872 11.0135 86.6192 11.3818 -7.12607 29.8914 -6.13605 10.5442 169.728 14.3992 70.4941 -35.2688 -33.2043 -8.95829 56.6748 0.701539 2.99832 30.2563 -0.104172 -0.336935 0.110733 7.7612 -90.9886 11.3454 -0.240504 -1.94489 -0.326923 -0.325874 -1.93244 -22.8506 0.355014 -1.92728 -2.83798 0.355002 -1.92729 92.0141 -29.3673 -102.952 37.6709 -0.203952 12.8187 -4.2655 -25.3841 -25.7887 -22.6253 0.55262 -11.6746 -83.2027 -38.7758 87.6915 -18.7204 8.38495 -3.42817 2.71431 -1.1349 -12.1616 1.53661 -0.179298 -7.04009 -1.50058 -14.9794 -26.8696 -3.88218 -11.3952 -5.39882 
145.836 86.8594 -156.115 98.9606 -42.802 104.892 -171.96 27.3111 125.748 -53.3726 30.8558 11.5077 83.9179 10.2066 -6.64001 35.7415 -7.13817 13.3193 170.19 13.7107 69.3361 -40.7803 -30.2081 -8.51238 66.2065 -3.26795 2.98912 47.4785 0.586279 -7.61559 0.00273492 7.99043 -91.1029 10.8827 -0.504276 -2.14757 -0.789866 -0.598291 -2.12332 -23.3107 0.164275 -2.19983 -3.2981 0.164294 -2.19983 92.631 -28.4829 -101.985 36.8757 -0.596093 13.8854 -5.73543 -27.2322 -26.8887 -24.5495 0.252024 -9.9562 -82.1616 -41.0382 89.7345 -20.8098 7.79888 -2.1453 3.36921 -1.92379 -17.0054 1.23113 -0.220549 -8.45605 -1.31985 -12.3388 -17.7751 -7.28689 -9.85299 -3.1192 
138.217 88.3684 -148.099 105.325 -46.7574 105.889 -166.794 18.8866 127.765 -39.3654 37.9758 10.6311 61.9633 2.11687 -4.64424 41.0795 -5.96703 11.5225 169.119 14.3624 69.6796 -46.9669 -33.1624 -6.9759 75.2658 -7.44145 2.55632 44.5828 0.369136 -5.49625 -0.24399 8.22967 -90.8725 10.4053 -0.885721 -1.65344 -1.26638 -0.957635 -1.61286 -23.7936 -0.34795 -1.84313 -3.78098 -0.347946 -1.84313 92.6098 -28.6344 -101.978 37.0095 -0.45854 9.74436 -0.690509 -24.4869 -18.8676 -29.1028 0.273275 -8.66124 -81.7262 -42.2664 90.5754 -24.231 3.84881 3.79809 6.26244 0.660808 -22.4532 0.328047 -0.200088 -8.99613 -7.64818 -7.09374 -9.30195 -7.61363 -6.14511 -4.79661 
130.828 91.8726 -141.699 105.096 -48.186 101.072 -169.854 17.3769 121.909 -38.5111 30.6161 10.2382 59.5523 1.17193 0.586517 14.6425 -3.45265 5.579 169.126 12.3786 71.5913 -44.0393 -31.2789 -6.59088 80.5507 -10.0278 2.59348 39.5996 0.136193 -2.66297 -0.317495 8.07745 -90.4185 10.7157 -0.824994 -0.756438 -0.955167 -0.857493 -0.719407 -23.4897 -0.559545 -0.96941 -3.47703 -0.559531 -0.969405 92.828 -27.6204 -101.853 40.313 0.44777 8.30085 1.70178 -18.8966 -16.5131 -30.39 0.403872 -8.36548 -81.3021 -43.8057 91.3975 -24.4913 3.81137 5.10534 8.00253 3.83847 -24.4367 1.93474 -0.214033 -7.6532 -12.7688 -5.09101 -5.43186 -9.1044 -4.83776 -2.29473 
125.642 94.7939 -138.098 104.18 -48.9699 97.5485 -168.033 18.5322 113.483 -40.4282 5.08733 0.872799 71.1648 5.81202 0.55414 17.1978 0.415774 0.379766 166.907 11.8091 72.1237 -38.6169 -34.163 -4.73594 77.4391 -8.24359 2.58967 40.8191 -0.352642 -1.13093 -0.0177091 8.03516 -90.4229 10.802 -0.230403 -0.81945 -0.869188 -0.266244 -0.808525 -23.4023 0.0265124 -0.850808 -3.38968 0.0265174 -0.850817 93.6012 -25.1244 -101.014 40.3928 -2.02612 7.36484 2.07145 -21.829 -17.1354 -29.4037 0.69695 -10.0805 -81.2056 -44.4766 91.6037 -25.8825 4.04346 4.14791 8.9235 5.3477 -24.9456 -1.60359 -0.124011 -9.04952 -15.5839 -4.53876 -1.69512 -9.01316 -4.59879 0.0691626 
121.41 97.1752 -135.829 103.132 -47.5311 94.9493 -167.285 20.2382 103.082 -47.006 -2.53836 -3.80155 72.659 6.22978 -0.383815 18.8673 -0.501924 1.46603 167.192 9.40998 74.4621 -33.8276 -30.8412 -4.37462 74.9892 -7.25616 1.63873 37.4245 -0.633562 0.593276 -0.0336773 8.14797 -90.4825 10.576 -0.288855 -0.933287 -1.09525 -0.32964 -0.919674 -23.6277 0.00497004 -0.976951 -3.61507 0.00498126 -0.976945 94.0018 -24.2282 -100.422 38.4853 -1.15774 5.56416 -0.527353 -22.1794 -21.0511 -28.9954 0.752788 -10.4658 -81.3797 -43.555 91.2504 -24.6847 5.6676 5.60958 9.70287 5.61253 -29.1214 -0.15468 -0.171906 -8.53543 -16.5196 -3.79163 0.399317 -8.84907 -3.9285 1.537 
